<mxfile host="app.diagrams.net" modified="2022-11-29T06:48:47.796Z" agent="5.0 (Windows NT 10.0; Win64; x64) AppleWebKit/537.36 (KHTML, like Gecko) Chrome/107.0.0.0 Safari/537.36" etag="OcKGLM34vL84MYMasT_j" version="20.6.0" type="github" pages="2">
  <diagram id="cjQaIy38DdPEgIh5tRGR" name="Current State">
    <mxGraphModel dx="920" dy="595" grid="1" gridSize="10" guides="1" tooltips="1" connect="1" arrows="1" fold="1" page="1" pageScale="1" pageWidth="850" pageHeight="1100" math="0" shadow="0">
      <root>
        <mxCell id="0" />
        <mxCell id="1" parent="0" />
        <mxCell id="i4m-GZeJ5dxmzm1YNVpR-2" value="&lt;br&gt;&lt;div style=&quot;text-align: left;&quot;&gt;&lt;b&gt;&lt;br&gt;&lt;/b&gt;&lt;/div&gt;&lt;div style=&quot;text-align: left;&quot;&gt;&lt;b style=&quot;background-color: initial;&quot;&gt;Assumption&lt;/b&gt;&lt;span style=&quot;background-color: initial;&quot;&gt;&amp;nbsp;&lt;/span&gt;&lt;/div&gt;&lt;div style=&quot;text-align: left;&quot;&gt;&lt;ol&gt;&lt;li&gt;&lt;span style=&quot;background-color: initial;&quot;&gt;Weekly file received by the back office have the Tax Lot Data for customer Accounts.&amp;nbsp;&lt;/span&gt;&lt;/li&gt;&lt;li&gt;Tax Lot data is calculated for the Realized gain/Loss.&amp;nbsp;&lt;/li&gt;&lt;/ol&gt;&lt;/div&gt;&lt;div style=&quot;text-align: left;&quot;&gt;&lt;br&gt;&lt;/div&gt;&lt;span style=&quot;orphans: 2; text-indent: 0px; widows: 2; background-color: rgb(248, 249, 250); text-decoration-thickness: initial; text-decoration-style: initial; text-decoration-color: initial; float: none; display: inline !important;&quot;&gt;&lt;div style=&quot;text-align: left;&quot;&gt;&lt;br&gt;&lt;/div&gt;&lt;/span&gt;" style="whiteSpace=wrap;html=1;shape=mxgraph.basic.document" parent="1" vertex="1">
          <mxGeometry x="300" y="450" width="410" height="100" as="geometry" />
        </mxCell>
        <mxCell id="i4m-GZeJ5dxmzm1YNVpR-3" value="" style="image;html=1;image=img/lib/clip_art/computers/Mainframe_128x128.png" parent="1" vertex="1">
          <mxGeometry x="180" y="250" width="100" height="100" as="geometry" />
        </mxCell>
        <mxCell id="i4m-GZeJ5dxmzm1YNVpR-6" value="" style="edgeStyle=orthogonalEdgeStyle;rounded=0;orthogonalLoop=1;jettySize=auto;html=1;" parent="1" source="i4m-GZeJ5dxmzm1YNVpR-4" target="i4m-GZeJ5dxmzm1YNVpR-3" edge="1">
          <mxGeometry relative="1" as="geometry" />
        </mxCell>
        <mxCell id="i4m-GZeJ5dxmzm1YNVpR-4" value="Accounts Service&lt;br&gt;" style="sketch=0;html=1;dashed=0;whitespace=wrap;fillColor=#2875E2;strokeColor=#ffffff;points=[[0.005,0.63,0],[0.1,0.2,0],[0.9,0.2,0],[0.5,0,0],[0.995,0.63,0],[0.72,0.99,0],[0.5,1,0],[0.28,0.99,0]];verticalLabelPosition=bottom;align=center;verticalAlign=top;shape=mxgraph.kubernetes.icon;prIcon=api" parent="1" vertex="1">
          <mxGeometry x="368" y="200" width="50" height="48" as="geometry" />
        </mxCell>
        <mxCell id="i4m-GZeJ5dxmzm1YNVpR-8" value="" style="edgeStyle=orthogonalEdgeStyle;rounded=0;orthogonalLoop=1;jettySize=auto;html=1;" parent="1" source="i4m-GZeJ5dxmzm1YNVpR-5" target="i4m-GZeJ5dxmzm1YNVpR-3" edge="1">
          <mxGeometry relative="1" as="geometry">
            <Array as="points">
              <mxPoint x="230" y="385" />
            </Array>
          </mxGeometry>
        </mxCell>
        <mxCell id="i4m-GZeJ5dxmzm1YNVpR-5" value="&lt;span style=&quot;font-size:11.0pt;line-height:107%;&lt;br/&gt;font-family:&amp;quot;Calibri&amp;quot;,sans-serif;mso-ascii-theme-font:minor-latin;mso-fareast-font-family:&lt;br/&gt;Calibri;mso-fareast-theme-font:minor-latin;mso-hansi-theme-font:minor-latin;&lt;br/&gt;mso-bidi-font-family:&amp;quot;Times New Roman&amp;quot;;mso-bidi-theme-font:minor-bidi;&lt;br/&gt;mso-ansi-language:EN-US;mso-fareast-language:EN-US;mso-bidi-language:AR-SA&quot;&gt;weekly&amp;nbsp;&lt;/span&gt;" style="aspect=fixed;html=1;points=[];align=center;image;fontSize=12;image=img/lib/azure2/general/Files.svg;" parent="1" vertex="1">
          <mxGeometry x="370" y="350" width="64" height="70" as="geometry" />
        </mxCell>
        <mxCell id="i4m-GZeJ5dxmzm1YNVpR-10" value="&lt;b&gt;Understanding of the current system:&lt;/b&gt;&lt;br&gt;&lt;ol style=&quot;&quot;&gt;&lt;li style=&quot;&quot;&gt;Account&amp;nbsp;Security Positions for customers&lt;/li&gt;&lt;li style=&quot;&quot;&gt;&lt;b&gt;&amp;nbsp;&lt;/b&gt;&lt;/li&gt;&lt;li style=&quot;&quot;&gt;&lt;b&gt;&lt;br&gt;&lt;/b&gt;&lt;/li&gt;&lt;/ol&gt;&lt;b&gt;&lt;br&gt;&lt;/b&gt;" style="shape=note;size=20;whiteSpace=wrap;html=1;align=left;" parent="1" vertex="1">
          <mxGeometry x="250" y="50" width="480" height="100" as="geometry" />
        </mxCell>
      </root>
    </mxGraphModel>
  </diagram>
  <diagram id="T10lgjaeekmoiZBlBA3k" name="Proposed Solution">
    <mxGraphModel dx="782" dy="449" grid="1" gridSize="10" guides="1" tooltips="1" connect="1" arrows="1" fold="1" page="1" pageScale="1" pageWidth="850" pageHeight="1100" math="0" shadow="0">
      <root>
        <mxCell id="0" />
        <mxCell id="1" parent="0" />
      </root>
    </mxGraphModel>
  </diagram>
</mxfile>
